<?xml version="1.0" encoding="UTF-8"?>
<svg version="1.1" xmlns="http://www.w3.org/2000/svg" width="894" height="367">
<path d="M0 0 C295.02 0 590.04 0 894 0 C894 121.11 894 242.22 894 367 C598.98 367 303.96 367 0 367 C0 245.89 0 124.78 0 0 Z " fill="#FEFEFE" transform="translate(0,0)"/>
<path d="M0 0 C1.61412667 -0.00389525 3.22825234 -0.0082316 4.84237671 -0.01298523 C8.21965866 -0.02042394 11.59683606 -0.0201747 14.97412109 -0.01489258 C19.26387963 -0.00912187 23.55320301 -0.02598201 27.84288979 -0.04923725 C31.17701648 -0.06410613 34.51104178 -0.06482826 37.84519577 -0.06172752 C39.42455273 -0.06223485 41.00391628 -0.06735954 42.58324051 -0.07753944 C65.84490232 -0.20901994 85.16249524 6.28419507 102.2734375 22.48828125 C116.73463279 37.68621866 123.43619416 55.34160715 123.5234375 76.30078125 C123.56059339 78.43230229 123.59840594 80.56381194 123.63671875 82.6953125 C123.66443456 85.00126823 123.6891642 87.30726175 123.7109375 89.61328125 C123.72431152 90.69867188 123.73768555 91.7840625 123.75146484 92.90234375 C123.76731807 113.67640941 116.8502699 132.77335889 102.19140625 147.65625 C101.31097656 148.52894531 100.43054688 149.40164062 99.5234375 150.30078125 C98.90082031 150.95691406 98.27820313 151.61304688 97.63671875 152.2890625 C93.46467618 156.36735131 88.5947139 159.1789842 83.5234375 161.98828125 C82.87810059 162.35719482 82.23276367 162.7261084 81.56787109 163.10620117 C68.90502228 169.8035689 55.31024414 170.91744632 41.30078125 170.83203125 C39.70048285 170.83473783 38.10018607 170.83862982 36.49989319 170.84362793 C33.17449007 170.84946671 29.84952177 170.8411437 26.52416992 170.82226562 C22.30630142 170.79946028 18.08945074 170.81264472 13.87161922 170.83655548 C10.57602044 170.85115168 7.2806549 170.84634536 3.98504829 170.83604431 C2.43164505 170.83341593 0.87821913 170.83650607 -0.67515755 170.84596252 C-20.34151189 170.93949144 -38.53345151 165.71964048 -53.4765625 152.30078125 C-54.29769531 151.57246094 -55.11882812 150.84414062 -55.96484375 150.09375 C-70.92984325 136.03709645 -78.58884455 117.07934586 -79.66357422 96.76611328 C-79.74328747 93.12950563 -79.74979195 89.50062557 -79.7265625 85.86328125 C-79.73429688 84.65607422 -79.74203125 83.44886719 -79.75 82.20507812 C-79.70380311 60.61958159 -74.75447023 41.84599622 -60.4765625 25.30078125 C-59.91710937 24.6459375 -59.35765625 23.99109375 -58.78125 23.31640625 C-49.57742203 13.35555347 -37.38641324 6.20792397 -24.4765625 2.30078125 C-22.91047241 1.78608276 -22.91047241 1.78608276 -21.31274414 1.26098633 C-14.38454348 -0.44147812 -7.0904447 -0.00715222 0 0 Z " fill="#020302" transform="translate(318.4765625,97.69921875)"/>
<path d="M0 0 C1.30271347 -0.00700928 2.60542694 -0.01401855 3.94761658 -0.02124023 C7.47436224 -0.03925004 11.00063233 -0.03250237 14.52738476 -0.01972389 C18.24224675 -0.00948716 21.95707218 -0.01901802 25.67193604 -0.02526855 C31.90196944 -0.03251066 38.13181207 -0.02304452 44.36181641 -0.00390625 C51.54091902 0.01789436 58.71956767 0.0107744 65.89865947 -0.01121187 C72.09441509 -0.02941879 78.29003486 -0.03189962 84.48580861 -0.0214572 C88.17258849 -0.01525609 91.85915554 -0.01429312 95.54592133 -0.02760315 C99.65458184 -0.04140546 103.76247014 -0.02222612 107.87109375 0 C109.67769722 -0.01214539 109.67769722 -0.01214539 111.52079773 -0.02453613 C120.5760558 0.06589654 128.19627163 1.53943946 135.05175781 7.76757812 C140.47470487 13.76743445 142.27108638 18.4463335 142.17675781 26.51757812 C141.39561111 26.51996648 140.61446442 26.52235483 139.80964661 26.52481556 C120.78803748 26.58399435 101.76655779 26.6595629 82.74508667 26.75329304 C73.54637804 26.7982268 64.34770792 26.83764706 55.14892578 26.86401367 C47.1297135 26.88701334 39.11062332 26.92043337 31.09150791 26.96627969 C26.8468451 26.99018537 22.60230302 27.00893153 18.35757446 27.01519203 C14.35858858 27.02125492 10.35991151 27.04129804 6.36104012 27.07185364 C4.89699513 27.08061461 3.43290976 27.08436047 1.96883965 27.08258629 C-7.02125071 27.07513469 -13.79289252 27.43077265 -21.57324219 32.20507812 C-25.69096975 36.43718701 -27.58038114 40.60504735 -28.32324219 46.45507812 C-28.00348048 51.8697097 -26.02419981 57.09299379 -22.36230469 61.12695312 C-18.12404861 64.78433147 -14.58195873 66.7669055 -8.99465942 66.76913452 C-8.02493698 66.77451736 -7.05521454 66.77990021 -6.05610657 66.78544617 C-4.46961555 66.77926018 -4.46961555 66.77926018 -2.85107422 66.77294922 C-1.73181046 66.77656967 -0.61254669 66.78019012 0.54063416 66.78392029 C2.97364359 66.79081738 5.40666851 66.79331914 7.83968735 66.79197311 C11.70012592 66.79100783 15.56028605 66.80395369 19.42068481 66.82095337 C30.39794791 66.86720533 41.3751821 66.89188387 52.35253906 66.8984375 C59.06814217 66.90261598 65.78341707 66.92784402 72.4989357 66.96376419 C75.04956453 66.97351801 77.60023317 66.97591848 80.15087509 66.9705925 C105.86151003 66.91945917 105.86151003 66.91945917 117.17675781 71.51757812 C118.11059296 71.89570648 119.0444281 72.27383484 120.00656128 72.66342163 C126.83727541 75.60337202 131.96041516 80.31027593 137.17675781 85.51757812 C137.76585937 86.09507812 138.35496094 86.67257813 138.96191406 87.26757812 C143.40934782 91.99937465 145.80491422 97.52979184 148.17675781 103.51757812 C148.60988281 104.61070312 149.04300781 105.70382813 149.48925781 106.83007812 C152.07593136 120.70405445 149.39428761 133.51129467 141.73144531 145.31054688 C132.85841332 157.90668525 120.35513797 165.15703152 105.24986649 168.09373093 C99.0455111 168.9494438 92.78763017 168.77658576 86.53759766 168.74462891 C84.97949226 168.74406378 83.42138634 168.74438332 81.86328125 168.74551392 C77.66148064 168.74608449 73.45979571 168.73437833 69.25802183 168.720366 C64.85647904 168.7078091 60.45493319 168.70668425 56.05337524 168.70431519 C47.73093056 168.69811493 39.40853882 168.68172392 31.08611739 168.66161621 C21.60602494 168.63921178 12.12592988 168.62825238 2.64581752 168.61822534 C-16.84389899 168.59735632 -36.33356632 168.5622088 -55.82324219 168.51757812 C-52.28808082 163.9925902 -48.55639312 160.73629863 -44.00897217 157.24888611 C-41.7348125 155.40861801 -40.26360594 153.80886448 -38.40533447 151.45558167 C-33.75230715 145.63955102 -29.30250154 142.38011326 -21.7779541 141.4460144 C-14.8389321 140.97356407 -7.90336852 141.05498528 -0.95458126 141.19771647 C2.56984579 141.25639662 6.09402802 141.24362026 9.61883545 141.23817444 C16.28442273 141.23794692 22.94806385 141.29587728 29.61310077 141.37759262 C39.38553731 141.49530559 49.15837166 141.53658714 58.93143845 141.56361485 C59.65140353 141.56561498 60.37136862 141.56761512 61.11315084 141.56967586 C62.54958585 141.57359214 63.98602141 141.57731282 65.42245746 141.58083254 C69.60263122 141.59320628 73.78195216 141.62657585 77.96181536 141.67865074 C81.17823074 141.71616965 84.39478603 141.73574504 87.61132812 141.75952148 C88.75544159 141.77980911 89.89955505 141.80009674 91.07833862 141.82099915 C100.10484054 141.8615011 108.08596623 140.48028923 115.17675781 134.51757812 C120.45174663 127.45566898 122.15667276 121.32528425 121.17675781 112.51757812 C119.14736294 105.5879371 115.72069584 101.46869573 109.65332031 97.67382812 C102.7259784 94.43961171 96.48155451 94.23227564 88.93994141 94.26220703 C87.82838684 94.25858658 86.71683228 94.25496613 85.57159424 94.25123596 C83.16482741 94.24435889 80.75804504 94.24183335 78.35126877 94.24318314 C74.53287038 94.24415136 70.7147512 94.23116931 66.89639282 94.21420288 C56.04211 94.16802975 45.18787118 94.14326081 34.33349609 94.13671875 C27.68578513 94.13254318 21.03833076 94.10733881 14.39070511 94.07139206 C11.86716083 94.06163559 9.34357629 94.05923924 6.82001877 94.06456375 C-12.73239528 94.10387317 -28.55842424 93.19366195 -43.63574219 79.20507812 C-53.46546895 68.64460429 -56.65207054 56.78640174 -56.16699219 42.71289062 C-55.52299021 32.54225944 -51.60125862 24.95616395 -44.82324219 17.51757812 C-44.27667969 16.89109375 -43.73011719 16.26460937 -43.16699219 15.61914062 C-31.74626428 3.28259964 -16.27468925 -0.11015157 0 0 Z " fill="#020302" transform="translate(502.8232421875,97.482421875)"/>
<path d="M0 0 C0.64509016 -0.00724325 1.29018032 -0.01448649 1.95481867 -0.02194923 C4.10952312 -0.03881386 6.2615394 -0.01291923 8.41612244 0.01295471 C9.96387961 0.0097345 11.51163324 0.00391584 13.05937195 -0.00430298 C17.26051836 -0.01883937 21.46070788 0.00411205 25.66173863 0.03455615 C30.06703262 0.06094978 34.47229809 0.05562408 38.87765503 0.05447388 C46.28305505 0.0572838 53.68808641 0.08332225 61.09336853 0.12428284 C69.63149653 0.17133785 78.16921974 0.18728126 86.70746809 0.18507618 C95.81910826 0.18304142 104.93059411 0.20392534 114.04218745 0.23141599 C116.65517635 0.23778215 119.26814001 0.23993581 121.88113594 0.24113274 C126.00742759 0.24417083 130.13338601 0.26268389 134.25956726 0.29263115 C135.76547641 0.30131535 137.27142394 0.30510092 138.7773571 0.30334854 C156.14349386 0.2907996 171.33540751 3.94377663 184.1893158 16.26124573 C194.17120686 27.24651579 198.87108827 40.53683012 198.72447205 55.25343323 C197.3864138 71.84907229 190.71036253 84.80999598 178.13072205 95.75343323 C169.24265224 102.49257826 157.6999208 106.87423546 146.47610474 106.86196899 C145.01435318 106.86403099 145.01435318 106.86403099 143.52307129 106.86613464 C141.93703346 106.86074173 141.93703346 106.86074173 140.31895447 106.85523987 C139.19656372 106.85538589 138.07417297 106.85553192 136.91777039 106.85568237 C133.2113908 106.85498624 129.50506159 106.84720776 125.7986908 106.83937073 C123.22750882 106.83750549 120.6563265 106.83608208 118.08514404 106.83508301 C112.01146264 106.83165621 105.937802 106.82377631 99.86412841 106.81373352 C92.94758067 106.80254593 86.03103206 106.79705527 79.11447752 106.79203808 C64.89071601 106.78159297 50.66696967 106.76401003 36.44322205 106.74171448 C37.21883484 105.96682678 37.99444763 105.19193909 38.79356384 104.39356995 C40.48049779 102.70523708 42.16246277 101.01191394 43.8377533 99.31202698 C48.27078145 94.82886765 52.73675895 90.47666924 57.5565033 86.40968323 C59.59140744 84.70165126 59.59140744 84.70165126 61.53445435 82.17570496 C65.27699502 79.04403226 68.20537316 79.05042703 72.870224 79.12989807 C73.70666443 79.12423325 74.54310486 79.11856842 75.40489197 79.11273193 C78.16422114 79.09925113 80.92223181 79.12016411 83.6815033 79.14015198 C85.60576271 79.13465002 87.53001625 79.12652381 89.45425415 79.1158905 C94.51968241 79.09300048 99.58467929 79.09722387 104.65013123 79.10969543 C112.74654643 79.1279944 120.84270703 79.11795332 128.93906212 79.0838356 C131.75976345 79.07775277 134.57991555 79.09096756 137.40057373 79.1058197 C139.14306274 79.10286971 140.88555074 79.09921385 142.6280365 79.09474182 C143.79338173 79.10867729 143.79338173 79.10867729 144.98226929 79.12289429 C151.24161146 79.07770311 156.93848264 77.97567124 161.75572205 73.67921448 C166.63748513 65.18133059 167.76410101 55.83043159 165.97447205 46.22608948 C164.17216677 39.91802102 160.97598019 34.75955724 155.19322205 31.45655823 C149.83653341 28.99847249 145.12925637 27.62505006 139.21672058 27.58349609 C138.16164433 27.57372207 137.10656807 27.56394804 136.01951981 27.55387783 C134.86286694 27.54810758 133.70621407 27.54233732 132.51451111 27.53639221 C131.27500576 27.52635949 130.03550041 27.51632677 128.7584343 27.50599003 C125.40846485 27.47979339 122.05852005 27.45777889 118.70851135 27.43779755 C115.56390328 27.41815724 112.41933874 27.39325668 109.27476501 27.36878967 C100.08095517 27.30031669 90.88708407 27.24028013 81.69322205 27.17921448 C61.15072205 27.03483948 40.60822205 26.89046448 19.44322205 26.74171448 C19.44322205 74.26171448 19.44322205 121.78171448 19.44322205 170.74171448 C9.21322205 170.74171448 -1.01677795 170.74171448 -11.55677795 170.74171448 C-11.66964444 149.46238773 -11.76175007 128.18330332 -11.81583881 106.90375328 C-11.84162065 97.02329671 -11.87677082 87.14303931 -11.93397522 77.26271057 C-11.98381077 68.65102239 -12.01606912 60.03947846 -12.02722043 51.42765009 C-12.03373894 46.86766048 -12.04905874 42.30808352 -12.08542824 37.74822617 C-12.11939021 33.45539632 -12.1298306 29.16314873 -12.12231636 24.8701973 C-12.12369083 23.2956043 -12.13362255 21.72099164 -12.15280533 20.14651489 C-12.17774908 17.99340357 -12.17168152 15.84247955 -12.15805054 13.6893158 C-12.1626595 12.48545416 -12.16726847 11.28159252 -12.1720171 10.04125023 C-10.88214042 3.12362437 -7.14208084 -0.01012936 0 0 Z " fill="#020302" transform="translate(30.556777954101563,97.25828552246094)"/>
<path d="M0 0 C1.17585159 -0.01283524 2.35170319 -0.02567047 3.56318665 -0.03889465 C5.47553352 -0.04997505 5.47553352 -0.04997505 7.42651367 -0.0612793 C8.74302414 -0.06935104 10.05953461 -0.07742279 11.41593933 -0.08573914 C14.21104807 -0.10076679 17.00613148 -0.11059984 19.80126953 -0.11816406 C23.3435837 -0.12913565 26.88525342 -0.16342387 30.42734241 -0.20333576 C33.18070957 -0.22979067 35.93393118 -0.2378818 38.68741417 -0.24144554 C40.61582351 -0.24855553 42.54413222 -0.27488309 44.47236633 -0.30183411 C57.1081271 -0.27129631 68.2400547 2.31622412 78.28198242 10.17700195 C79.14823242 10.75450195 80.01448242 11.33200195 80.90698242 11.92700195 C90.46569 20.98261966 95.72164014 32.67566085 96.48876953 45.68334961 C96.56954636 48.94421569 96.6082939 52.20009452 96.59765625 55.46191406 C96.59450321 57.47622248 96.61801423 59.48904642 96.64331055 61.50317383 C96.65144357 78.05387994 92.99547473 91.91430101 81.47729492 104.17700195 C77.78187233 107.5436503 73.77616994 110.01516378 69.28198242 112.17700195 C68.64367493 112.50386993 68.00536743 112.83073792 67.34771729 113.16751099 C59.68503251 116.70889192 52.38890996 116.78018872 44.07104492 116.7434082 C42.61192431 116.74865765 41.15280709 116.7549389 39.69369507 116.76219177 C36.64939298 116.77254232 33.60555984 116.76811371 30.5612793 116.75341797 C26.69249559 116.73625497 22.82520077 116.75972075 18.95658302 116.79490757 C15.94673132 116.81705016 12.93722653 116.81539963 9.92731857 116.80714226 C8.50260156 116.80633158 7.07785674 116.81302282 5.65321732 116.82791328 C-8.45073157 116.95275076 -20.49765263 112.92082401 -30.87426758 103.14575195 C-35.67703215 98.05625516 -39.18414906 92.70417564 -41.71801758 86.17700195 C-41.9784082 85.5334375 -42.23879883 84.88987305 -42.50708008 84.22680664 C-45.16509689 76.77239218 -45.17543807 69.36436904 -45.10913086 61.55541992 C-45.09309459 59.31277171 -45.10902316 57.07193824 -45.12817383 54.8293457 C-45.15191786 39.54293596 -42.17813439 25.40263497 -31.46411133 13.7980957 C-24.6948278 7.51341413 -17.48343253 3.88975933 -8.71801758 1.17700195 C-5.56964643 0.1275449 -3.30656715 0.03145679 0 0 Z " fill="#FEFEFE" transform="translate(314.718017578125,124.822998046875)"/>
<path d="M0 0 C0 22.11 0 44.22 0 67 C49.5 67 99 67 150 67 C150 44.89 150 22.78 150 0 C169.86096257 0 169.86096257 0 175.51171875 5.4609375 C179.49331175 9.95591642 181.2549392 13.44301097 181.22705078 19.41113281 C181.22682419 21.03236053 181.22682419 21.03236053 181.22659302 22.68634033 C181.21627045 23.84687927 181.20594788 25.00741821 181.1953125 26.203125 C181.1924826 27.39605164 181.18965271 28.58897827 181.18673706 29.8180542 C181.17554053 33.62880476 181.15043653 37.43932045 181.125 41.25 C181.11496954 43.83332994 181.1058438 46.41666356 181.09765625 49 C181.0773044 55.33349666 181.0381537 61.66648536 181 68 C171.1 68 161.2 68 151 68 C151 76.91 151 85.82 151 95 C155.99587637 94.8821591 155.99587637 94.8821591 160.99072266 94.72973633 C166.76148856 94.66161228 170.74720147 95.90358711 175.08203125 99.9375 C175.65308594 100.618125 176.22414063 101.29875 176.8125 102 C177.39644531 102.680625 177.98039063 103.36125 178.58203125 104.0625 C181.17643638 107.6074723 181.12229267 110.68805561 181.11352539 114.94018555 C181.11344986 116.16122482 181.11337433 117.3822641 181.11329651 118.64030457 C181.10813522 119.95912125 181.10297394 121.27793793 181.09765625 122.63671875 C181.0957908 124.00006559 181.0943675 125.36341311 181.09336853 126.72676086 C181.08955332 130.31228491 181.07973155 133.89776835 181.06866455 137.48327637 C181.05842901 141.1431421 181.05381151 144.80301459 181.04882812 148.46289062 C181.03863926 155.64196293 181.01906512 162.82092377 181 170 C170.77 170 160.54 170 150 170 C150 145.25 150 120.5 150 95 C100.5 95 51 95 0 95 C0 119.75 0 144.5 0 170 C-9.9 170 -19.8 170 -30 170 C-30.08397573 161.89634196 -30.16410082 153.79426739 -30.20700073 145.69055176 C-30.22808873 141.91655791 -30.25624977 138.14292573 -30.30175781 134.36914062 C-30.34534598 130.73163413 -30.36916419 127.09447747 -30.37950897 123.45672989 C-30.38687726 122.07167176 -30.40126605 120.68663193 -30.42292023 119.30172348 C-30.6238756 105.91215392 -30.6238756 105.91215392 -26 101 C-22.13222001 97.01873992 -18.86058546 95.04790385 -13.20703125 94.90234375 C-11.7421517 94.90804081 -10.27729765 94.92099565 -8.8125 94.9375 C-6.234375 94.958125 -3.65625 94.97875 -1 95 C-1 86.09 -1 77.18 -1 68 C-10.57 68 -20.14 68 -30 68 C-30.09188039 60.13401748 -30.17150974 52.26990039 -30.21972656 44.40380859 C-30.23756825 41.72836625 -30.26711049 39.05377984 -30.30175781 36.37841797 C-30.35033506 32.53081429 -30.37298365 28.68379213 -30.390625 24.8359375 C-30.41127014 23.64197357 -30.43191528 22.44800964 -30.45318604 21.21786499 C-30.45490587 14.83823451 -30.37952942 10.80384022 -26 6 C-17.32785628 -1.80492935 -13.61812612 0 0 0 Z " fill="#030403" transform="translate(693,98)"/>
<path d="M0 0 C49.5 0 99 0 150 0 C150 8.91 150 17.82 150 27 C100.5 27 51 27 0 27 C0 18.09 0 9.18 0 0 Z " fill="#000100" transform="translate(693,166)"/>
<path d="M0 0 C0 24.75 0 49.5 0 75 C-9.57 75 -19.14 75 -29 75 C-29.08397573 66.89634196 -29.16410082 58.79426739 -29.20700073 50.69055176 C-29.22808873 46.91655791 -29.25624977 43.14292573 -29.30175781 39.36914062 C-29.34534598 35.73163413 -29.36916419 32.09447747 -29.37950897 28.45672989 C-29.38687726 27.07167176 -29.40126605 25.68663193 -29.42292023 24.30172348 C-29.6238756 10.91215392 -29.6238756 10.91215392 -25 6 C-17.25614965 -1.97105379 -12.35881525 0 0 0 Z " fill="#000100" transform="translate(692,193)"/>
<path d="M0 0 C18 0 18 0 24 4 C27.79254315 8.30504898 29.1265168 10.58564085 29.11352539 16.27587891 C29.11344986 17.3768692 29.11337433 18.4778595 29.11329651 19.61221313 C29.10813522 20.80494843 29.10297394 21.99768372 29.09765625 23.2265625 C29.0962413 24.44451508 29.09482635 25.66246765 29.09336853 26.91732788 C29.08775639 30.8199099 29.07520179 34.72243523 29.0625 38.625 C29.05748657 41.26562417 29.05292339 43.90624924 29.04882812 46.546875 C29.0386325 53.03128959 29.01905936 59.51558109 29 66 C19.43 66 9.86 66 0 66 C0 44.22 0 22.44 0 0 Z " fill="#000100" transform="translate(844,99)"/>
<path d="M0 0 C0 21.78 0 43.56 0 66 C-9.57 66 -19.14 66 -29 66 C-29.09188659 58.27642184 -29.17151377 50.55474418 -29.21972656 42.83105469 C-29.23982715 40.20436167 -29.26711204 37.57771331 -29.30175781 34.95117188 C-29.35034164 31.17306488 -29.37298509 27.39555016 -29.390625 23.6171875 C-29.41127014 22.44509735 -29.43191528 21.2730072 -29.45318604 20.06539917 C-29.45492548 13.72830239 -29.33710903 9.77557076 -25 5 C-16.31819198 -2.64825944 -15.38070261 0 0 0 Z " fill="#000100" transform="translate(692,99)"/>
<path d="M0 0 C5.61 0 11.22 0 17 0 C17 22.11 17 44.22 17 67 C66.5 67 116 67 167 67 C167 44.89 167 22.78 167 0 C172.28 0 177.56 0 183 0 C183 0.33 183 0.66 183 1 C178.05 1 173.1 1 168 1 C168 22.78 168 44.56 168 67 C177.57 67 187.14 67 197 67 C197 49.51 197 32.02 197 14 C197.33 14 197.66 14 198 14 C198 31.82 198 49.64 198 68 C188.1 68 178.2 68 168 68 C168 101.66 168 135.32 168 170 C167.67 170 167.34 170 167 170 C167 136.34 167 102.68 167 68 C117.5 68 68 68 17 68 C17 101.66 17 135.32 17 170 C16.67 170 16.34 170 16 170 C16 136.34 16 102.68 16 68 C6.43 68 -3.14 68 -13 68 C-13 67.67 -13 67.34 -13 67 C-3.43 67 6.14 67 16 67 C16 45.22 16 23.44 16 1 C10.72 1 5.44 1 0 1 C0 0.67 0 0.34 0 0 Z " fill="#707070" transform="translate(676,98)"/>
</svg>
